<?xml version="1.0" encoding="UTF-8" standalone="no"?>
<!DOCTYPE svg PUBLIC "-//W3C//DTD SVG 1.1//EN" "http://www.w3.org/Graphics/SVG/1.1/DTD/svg11.dtd">
<svg xmlns="http://www.w3.org/2000/svg" version="1.1" viewBox="0.00 0.00 512.00 512.00">
<path fill="#000000" d="
  M 0.00 0.00
  L 119.88 0.00
  L 119.93 29.35
  A 0.65 0.65 0.0 0 1 119.28 30.00
  L 30.50 30.00
  A 0.50 0.50 0.0 0 0 30.00 30.50
  L 30.00 119.45
  Q 30.00 119.92 29.52 119.92
  L 0.00 119.92
  L 0.00 0.00
  Z"
/>
<path fill="#000000" d="
  M 392.30 0.00
  L 512.00 0.00
  L 512.00 120.01
  L 482.48 119.94
  Q 482.00 119.94 482.00 119.46
  L 482.00 31.00
  A 1.00 1.00 0.0 0 0 481.00 30.00
  L 392.28 30.00
  A 0.27 0.27 0.0 0 1 392.01 29.72
  L 392.30 0.00
  Z"
/>
<path fill="#000000" d="
  M 211.00 120.75
  L 211.00 209.00
  A 1.00 1.00 0.0 0 1 210.00 210.00
  L 61.50 210.00
  A 0.50 0.50 0.0 0 1 61.00 209.50
  L 61.00 60.75
  A 0.75 0.75 0.0 0 1 61.75 60.00
  L 210.50 60.00
  Q 211.00 60.00 211.00 60.50
  L 211.00 89.12
  A 0.88 0.87 -90.0 0 0 211.87 90.00
  L 239.89 90.02
  A 1.16 1.16 0.0 0 0 241.05 88.86
  L 240.99 60.76
  Q 240.99 60.00 241.74 60.00
  L 270.50 60.00
  A 0.50 0.50 0.0 0 1 271.00 60.50
  L 271.00 89.25
  A 0.75 0.75 0.0 0 1 270.25 90.00
  L 241.74 90.00
  A 0.76 0.76 0.0 0 0 240.98 90.76
  L 240.98 118.77
  A 1.29 1.29 0.0 0 0 242.27 120.06
  L 270.50 120.00
  A 0.50 0.50 0.0 0 1 271.00 120.50
  L 271.00 179.50
  A 0.50 0.50 0.0 0 1 270.50 180.00
  L 241.54 180.00
  Q 241.01 180.00 241.01 179.47
  Q 240.97 151.13 241.06 121.87
  Q 241.06 121.41 240.90 120.98
  Q 240.54 119.98 239.48 119.98
  L 211.75 119.99
  Q 211.00 119.99 211.00 120.75
  Z
  M 181.00 90.92
  A 0.92 0.92 0.0 0 0 180.08 90.00
  L 91.92 90.00
  A 0.92 0.92 0.0 0 0 91.00 90.92
  L 91.00 179.08
  A 0.92 0.92 0.0 0 0 91.92 180.00
  L 180.08 180.00
  A 0.92 0.92 0.0 0 0 181.00 179.08
  L 181.00 90.92
  Z"
/>
<path fill="#000000" d="
  M 151.00 390.75
  L 151.00 419.00
  A 1.00 1.00 0.0 0 0 152.00 420.00
  L 210.25 420.00
  A 0.75 0.74 90.0 0 0 210.99 419.25
  L 211.01 390.91
  Q 211.01 390.00 211.92 390.00
  L 240.25 390.00
  A 0.75 0.75 0.0 0 1 241.00 390.75
  L 241.00 419.25
  A 0.75 0.75 0.0 0 0 241.75 420.00
  L 270.50 420.00
  A 0.50 0.50 0.0 0 1 271.00 420.50
  L 271.00 449.25
  Q 271.00 450.00 270.25 450.00
  L 121.50 450.00
  A 0.50 0.50 0.0 0 1 121.00 449.50
  L 121.00 421.25
  A 1.25 1.25 0.0 0 0 119.75 420.00
  L 91.99 420.00
  A 1.01 1.01 0.0 0 0 90.98 421.01
  L 91.00 449.25
  A 0.75 0.75 0.0 0 1 90.25 450.00
  L 61.75 450.00
  Q 61.00 450.00 61.00 449.25
  L 61.00 420.74
  A 0.76 0.76 0.0 0 1 61.76 419.99
  L 89.72 420.10
  A 1.32 1.32 0.0 0 0 91.04 418.78
  L 91.02 391.49
  Q 91.02 389.96 89.49 389.96
  L 61.76 390.01
  A 0.76 0.76 0.0 0 1 61.00 389.25
  L 61.00 330.75
  A 0.75 0.75 0.0 0 1 61.75 330.00
  L 89.74 330.06
  A 1.30 1.29 90.0 0 0 91.03 328.76
  L 91.00 300.75
  A 0.76 0.75 -90.0 0 1 91.75 299.99
  L 120.12 300.00
  A 0.88 0.88 0.0 0 0 121.00 299.12
  L 121.00 271.25
  A 1.25 1.25 0.0 0 0 119.75 270.00
  L 61.50 270.00
  A 0.50 0.50 0.0 0 1 61.00 269.50
  L 61.00 240.75
  A 0.75 0.75 0.0 0 1 61.75 240.00
  L 210.26 240.00
  A 0.76 0.76 0.0 0 1 211.02 240.76
  L 210.89 268.83
  A 1.19 1.19 0.0 0 0 212.08 270.03
  L 239.86 270.06
  A 1.17 1.17 0.0 0 0 241.03 268.89
  L 240.99 210.51
  A 0.51 0.50 -90.0 0 1 241.49 210.00
  L 270.50 210.00
  A 0.50 0.50 0.0 0 1 271.00 210.50
  L 271.00 238.99
  A 0.99 0.99 0.0 0 0 271.99 239.98
  L 360.00 240.05
  A 1.05 1.05 0.0 0 0 361.05 239.00
  L 361.00 211.50
  Q 361.00 210.00 359.50 210.00
  L 301.75 210.00
  A 0.75 0.75 0.0 0 1 301.00 209.25
  L 301.00 61.00
  A 1.00 1.00 0.0 0 1 302.00 60.00
  L 450.25 60.00
  A 0.75 0.75 0.0 0 1 451.00 60.75
  L 451.00 209.00
  A 1.00 1.00 0.0 0 1 450.00 210.00
  L 391.28 210.00
  A 0.21 0.20 -88.5 0 0 391.08 210.20
  Q 390.90 221.92 390.90 234.90
  Q 390.90 236.71 391.08 239.13
  A 0.97 0.97 0.0 0 0 392.05 240.02
  L 450.50 239.99
  A 0.51 0.50 90.0 0 1 451.00 240.50
  L 451.00 269.25
  A 0.75 0.75 0.0 0 1 450.25 270.00
  L 391.99 270.00
  A 1.02 1.02 0.0 0 0 390.97 271.02
  L 391.00 299.00
  A 1.00 1.00 0.0 0 0 392.00 300.00
  L 450.25 300.00
  Q 451.00 300.00 451.00 300.75
  L 451.00 449.25
  A 0.75 0.75 0.0 0 1 450.25 450.00
  L 301.75 450.00
  A 0.75 0.75 0.0 0 1 301.00 449.25
  L 301.00 391.25
  A 1.25 1.25 0.0 0 0 299.75 390.00
  L 271.50 390.00
  A 0.50 0.50 0.0 0 1 271.00 389.50
  L 271.04 361.27
  A 1.27 1.27 0.0 0 0 269.77 360.00
  L 241.25 360.00
  A 0.25 0.25 0.0 0 1 241.00 359.75
  L 241.00 330.75
  Q 241.00 330.00 241.75 330.00
  L 269.75 330.03
  A 1.29 1.28 0.0 0 0 271.04 328.75
  L 271.00 300.75
  A 0.75 0.75 0.0 0 1 271.75 300.00
  L 360.12 300.00
  A 0.88 0.87 0.0 0 0 361.00 299.13
  L 361.04 271.24
  A 1.06 1.04 -84.8 0 0 360.19 270.20
  Q 358.74 269.92 357.00 269.92
  Q 296.46 270.05 241.97 269.99
  A 0.98 0.98 0.0 0 0 240.99 270.97
  L 241.00 299.50
  A 0.50 0.50 0.0 0 1 240.50 300.00
  L 211.99 300.01
  A 1.01 1.00 0.0 0 0 210.98 301.01
  L 211.01 359.49
  A 0.50 0.50 0.0 0 1 210.51 359.99
  L 182.00 360.00
  A 1.01 1.01 0.0 0 0 180.99 361.01
  L 181.00 389.00
  A 1.00 1.00 0.0 0 1 180.00 390.00
  L 151.75 390.00
  Q 151.00 390.00 151.00 390.75
  Z
  M 421.00 90.92
  A 0.92 0.92 0.0 0 0 420.08 90.00
  L 331.92 90.00
  A 0.92 0.92 0.0 0 0 331.00 90.92
  L 331.00 179.08
  A 0.92 0.92 0.0 0 0 331.92 180.00
  L 420.08 180.00
  A 0.92 0.92 0.0 0 0 421.00 179.08
  L 421.00 90.92
  Z
  M 391.06 241.29
  A 1.30 1.30 0.0 0 0 389.76 239.99
  L 362.28 239.99
  A 1.30 1.30 0.0 0 0 360.98 241.29
  L 360.98 268.73
  A 1.30 1.30 0.0 0 0 362.28 270.03
  L 389.76 270.03
  A 1.30 1.30 0.0 0 0 391.06 268.73
  L 391.06 241.29
  Z
  M 180.98 301.10
  A 1.12 1.12 0.0 0 1 182.11 299.98
  L 209.90 300.10
  A 1.12 1.12 0.0 0 0 211.03 298.98
  L 211.01 271.09
  A 1.12 1.12 0.0 0 0 209.89 269.97
  L 152.11 270.00
  A 1.12 1.12 0.0 0 0 150.99 271.12
  L 151.00 358.89
  A 1.12 1.12 0.0 0 0 152.12 360.01
  L 179.91 360.07
  A 1.12 1.12 0.0 0 0 181.03 358.95
  L 180.98 301.10
  Z
  M 121.00 331.07
  A 1.06 1.06 0.0 0 0 119.94 330.01
  L 92.02 330.01
  A 1.06 1.06 0.0 0 0 90.96 331.07
  L 90.96 388.95
  A 1.06 1.06 0.0 0 0 92.02 390.01
  L 119.94 390.01
  A 1.06 1.06 0.0 0 0 121.00 388.95
  L 121.00 331.07
  Z
  M 301.0240 331.2863
  A 1.26 1.26 0.0 0 0 299.7662 330.0241
  L 272.2063 329.9760
  A 1.26 1.26 0.0 0 0 270.9441 331.2338
  L 270.8960 358.7737
  A 1.26 1.26 0.0 0 0 272.1538 360.0359
  L 299.7137 360.0840
  A 1.26 1.26 0.0 0 0 300.9759 358.8262
  L 301.0240 331.2863
  Z
  M 421.00 330.92
  A 0.92 0.92 0.0 0 0 420.08 330.00
  L 331.92 330.00
  A 0.92 0.92 0.0 0 0 331.00 330.92
  L 331.00 419.08
  A 0.92 0.92 0.0 0 0 331.92 420.00
  L 420.08 420.00
  A 0.92 0.92 0.0 0 0 421.00 419.08
  L 421.00 330.92
  Z"
/>
<rect fill="#000000" x="121.00" y="120.00" width="30.00" height="30.00" rx="0.62"/>
<rect fill="#000000" x="361.00" y="120.00" width="30.00" height="30.00" rx="0.62"/>
<rect fill="#000000" x="361.00" y="360.00" width="30.00" height="30.00" rx="0.62"/>
<path fill="#000000" d="
  M 119.94 512.00
  L 0.00 512.00
  L 0.00 392.35
  L 29.51 392.05
  Q 30.00 392.04 30.00 392.53
  L 30.00 481.00
  A 1.00 1.00 0.0 0 0 31.00 482.00
  L 119.46 482.00
  Q 119.93 482.00 119.93 482.48
  L 119.94 512.00
  Z"
/>
<path fill="#000000" d="
  M 512.00 392.12
  L 512.00 512.00
  L 391.98 512.00
  L 392.00 482.96
  A 0.96 0.95 90.0 0 1 392.95 482.00
  L 481.50 482.00
  Q 482.00 482.00 482.00 481.50
  L 482.00 393.02
  A 1.00 1.00 0.0 0 1 483.01 392.02
  L 512.00 392.12
  Z"
/>
</svg>
