<svg width="250" height="288" viewBox="0 0 250 288" xmlns="http://www.w3.org/2000/svg">
<path fill-rule="nonzero" fill="#ffffff" d="M0.5 0H0V0.5V276.96V288.5V289H0.5H10.9278H11.3107L11.4105 288.63C12.7053 283.838 19.3659 283.477 21.1706 288.102L21.3969 288.682L21.5211 289H21.8627H24.3479H24.8449H27.3301H27.7129L27.8128 288.63C29.1075 283.838 35.7681 283.477 37.5728 288.102L37.7991 288.682L37.9233 289H38.2649H41.2471H44.2294H44.6122L44.7121 288.63C46.0068 283.838 52.6674 283.477 54.4721 288.102L54.6984 288.682L54.8226 289H55.1642H58.1464H61.1287H61.5115L61.6113 288.63C62.9061 283.838 69.5667 283.477 71.3714 288.102L71.5977 288.682L71.7219 289H72.0635H75.0457H78.0279H78.4108L78.5106 288.63C79.8054 283.838 86.466 283.477 88.2707 288.102L88.497 288.682L88.6212 289H88.9628H91.945H94.9272H95.3101L95.4099 288.63C96.7047 283.838 103.365 283.477 105.17 288.102L105.396 288.682L105.52 289H105.862H108.844H111.826H112.209L112.309 288.63C113.604 283.838 120.265 283.477 122.069 288.102L122.296 288.682L122.42 289H122.761H125.744H128.726H129.109L129.208 288.63C130.503 283.838 137.164 283.477 138.969 288.102L139.195 288.682L139.319 289H139.661H142.643H145.625H146.008L146.108 288.63C147.403 283.838 154.063 283.477 155.868 288.102L156.094 288.682L156.218 289H156.56H159.542H162.524H162.907L163.007 288.63C164.302 283.838 170.962 283.477 172.767 288.102L172.993 288.682L173.118 289H173.459H175.944H176.441H178.927H179.309L179.409 288.63C180.704 283.838 187.365 283.477 189.169 288.102L189.396 288.682L189.52 289H189.861H192.844H195.826H196.209L196.309 288.63C197.603 283.838 204.264 283.477 206.069 288.102L206.295 288.682L206.419 289H206.761H209.743H212.725H213.108L213.208 288.63C214.503 283.838 221.163 283.477 222.968 288.102L223.194 288.682L223.318 289H223.66H226.642H229.624H230.007L230.107 288.63C231.402 283.838 238.062 283.477 239.867 288.102L240.093 288.682L240.218 289H240.559H250.5V288.5H251V276.96V0.5V0H250.5H0.5ZM250 288V276.96V1H1V276.96V288H10.5562C12.3383 282.63 19.994 282.336 22.1022 287.738L22.2043 288H24.3479H24.8449H26.9585C28.7406 282.63 36.3963 282.336 38.5044 287.738L38.6065 288H41.2471H43.8578C45.6398 282.63 53.2956 282.336 55.4037 287.738L55.5058 288H58.1464H60.757C62.5391 282.63 70.1948 282.336 72.303 287.738L72.4051 288H75.0457H77.6563C79.4384 282.63 87.0941 282.336 89.2022 287.738L89.3044 288H91.945H94.5556C96.3377 282.63 103.993 282.336 106.102 287.738L106.204 288H108.844H111.455C113.237 282.63 120.893 282.336 123.001 287.738L123.103 288H125.744H128.354C130.136 282.63 137.792 282.336 139.9 287.738L140.002 288H142.643H145.253C147.036 282.63 154.691 282.336 156.799 287.738L156.901 288H159.542H162.153C163.935 282.63 171.591 282.336 173.699 287.738L173.801 288H175.944H176.441H178.555C180.337 282.63 187.993 282.336 190.101 287.738L190.203 288H192.844H195.454C197.236 282.63 204.892 282.336 207 287.738L207.102 288H209.743H212.354C214.136 282.63 221.791 282.336 223.899 287.738L224.002 288H226.642H229.253C231.035 282.63 238.691 282.336 240.799 287.738L240.901 288H250Z"/>
</svg>
